# xmcd
#
# Track frame offsets: 
#        150
#        16011
#        35040
#        68869
#        87249
#        119806
#        153084
#        190380
#        201477
#
# Disc length: 3068 seconds
#
# Revision: 0
# Processed by: cddbd v1.5.2PL0 Copyright (c) Steve Scherf et al.
# Submitted via: ExactAudioCopy v1.3
#
DISCID=7b0bfa09
DTITLE=Sanna Kurki-Suonio - Sanna Kurki-Suonion kuolematon erikoissyst
DTITLE=eemi
DYEAR=2015
DGENRE=Folk
TTITLE0=Hyvästi
TTITLE1=Hei Babe
TTITLE2=Häävalssi
TTITLE3=Villit peurat
TTITLE4=Manan Matti
TTITLE5=Aspis-Saatana
TTITLE6=Herätys
TTITLE7=Älä!
TTITLE8=Huivi
EXTD=
EXTT0=
EXTT1=
EXTT2=
EXTT3=
EXTT4=
EXTT5=
EXTT6=
EXTT7=
EXTT8=
PLAYORDER=
